<?xml version="1.0" encoding="UTF-8" ?>
<svg version="1.1" width="32" height="32" xmlns="http://www.w3.org/2000/svg" shape-rendering="crispEdges">
<rect x="11" y="1" width="1" height="1" fill="#312F3F" />
<rect x="12" y="1" width="1" height="1" fill="#312F3F" />
<rect x="13" y="1" width="1" height="1" fill="#312F3F" />
<rect x="14" y="1" width="1" height="1" fill="#312F3F" />
<rect x="15" y="1" width="1" height="1" fill="#312F3F" />
<rect x="10" y="2" width="1" height="1" fill="#312F3F" />
<rect x="11" y="2" width="1" height="1" fill="#45283C" />
<rect x="12" y="2" width="1" height="1" fill="#45283C" />
<rect x="13" y="2" width="1" height="1" fill="#45283C" />
<rect x="14" y="2" width="1" height="1" fill="#45283C" />
<rect x="15" y="2" width="1" height="1" fill="#45283C" />
<rect x="16" y="2" width="1" height="1" fill="#312F3F" />
<rect x="17" y="2" width="1" height="1" fill="#312F3F" />
<rect x="18" y="2" width="1" height="1" fill="#312F3F" />
<rect x="19" y="2" width="1" height="1" fill="#312F3F" />
<rect x="8" y="3" width="1" height="1" fill="#312F3F" />
<rect x="9" y="3" width="1" height="1" fill="#312F3F" />
<rect x="10" y="3" width="1" height="1" fill="#45283C" />
<rect x="11" y="3" width="1" height="1" fill="#45283C" />
<rect x="12" y="3" width="1" height="1" fill="#45283C" />
<rect x="13" y="3" width="1" height="1" fill="#45283C" />
<rect x="14" y="3" width="1" height="1" fill="#45283C" />
<rect x="15" y="3" width="1" height="1" fill="#45283C" />
<rect x="16" y="3" width="1" height="1" fill="#45283C" />
<rect x="17" y="3" width="1" height="1" fill="#45283C" />
<rect x="18" y="3" width="1" height="1" fill="#45283C" />
<rect x="19" y="3" width="1" height="1" fill="#43273A" />
<rect x="20" y="3" width="1" height="1" fill="#312F3F" />
<rect x="21" y="3" width="1" height="1" fill="#312F3F" />
<rect x="7" y="4" width="1" height="1" fill="#312F3F" />
<rect x="8" y="4" width="1" height="1" fill="#45283C" />
<rect x="9" y="4" width="1" height="1" fill="#45283C" />
<rect x="10" y="4" width="1" height="1" fill="#45283C" />
<rect x="11" y="4" width="1" height="1" fill="#45283C" />
<rect x="12" y="4" width="1" height="1" fill="#43273A" />
<rect x="13" y="4" width="1" height="1" fill="#422639" />
<rect x="14" y="4" width="1" height="1" fill="#402538" />
<rect x="15" y="4" width="1" height="1" fill="#3F2437" />
<rect x="16" y="4" width="1" height="1" fill="#3E2436" />
<rect x="17" y="4" width="1" height="1" fill="#3C2334" />
<rect x="18" y="4" width="1" height="1" fill="#3B2233" />
<rect x="19" y="4" width="1" height="1" fill="#392132" />
<rect x="20" y="4" width="1" height="1" fill="#382031" />
<rect x="21" y="4" width="1" height="1" fill="#372030" />
<rect x="22" y="4" width="1" height="1" fill="#312F3F" />
<rect x="5" y="5" width="1" height="1" fill="#312F3F" />
<rect x="6" y="5" width="1" height="1" fill="#45283C" />
<rect x="7" y="5" width="1" height="1" fill="#45283C" />
<rect x="8" y="5" width="1" height="1" fill="#41273B" opacity="0.929412" />
<rect x="9" y="5" width="1" height="1" fill="#43273B" opacity="0.976471" />
<rect x="10" y="5" width="1" height="1" fill="#45283C" />
<rect x="11" y="5" width="1" height="1" fill="#45283C" />
<rect x="12" y="5" width="1" height="1" fill="#45283C" />
<rect x="13" y="5" width="1" height="1" fill="#45283C" />
<rect x="14" y="5" width="1" height="1" fill="#45283C" />
<rect x="15" y="5" width="1" height="1" fill="#45283C" />
<rect x="16" y="5" width="1" height="1" fill="#45283C" />
<rect x="17" y="5" width="1" height="1" fill="#45283C" />
<rect x="18" y="5" width="1" height="1" fill="#45283C" />
<rect x="19" y="5" width="1" height="1" fill="#45283C" />
<rect x="20" y="5" width="1" height="1" fill="#45283C" />
<rect x="21" y="5" width="1" height="1" fill="#45283C" />
<rect x="22" y="5" width="1" height="1" fill="#45283C" />
<rect x="23" y="5" width="1" height="1" fill="#312F3F" />
<rect x="6" y="6" width="1" height="1" fill="#312F3F" />
<rect x="7" y="6" width="1" height="1" fill="#45283C" />
<rect x="8" y="6" width="1" height="1" fill="#45283C" />
<rect x="9" y="6" width="1" height="1" fill="#45283C" />
<rect x="10" y="6" width="1" height="1" fill="#45283C" />
<rect x="11" y="6" width="1" height="1" fill="#45283C" />
<rect x="12" y="6" width="1" height="1" fill="#45283C" />
<rect x="13" y="6" width="1" height="1" fill="#45283C" />
<rect x="14" y="6" width="1" height="1" fill="#45283C" />
<rect x="15" y="6" width="1" height="1" fill="#45283C" />
<rect x="16" y="6" width="1" height="1" fill="#45283C" />
<rect x="17" y="6" width="1" height="1" fill="#45283C" />
<rect x="18" y="6" width="1" height="1" fill="#45283C" />
<rect x="19" y="6" width="1" height="1" fill="#45283C" />
<rect x="20" y="6" width="1" height="1" fill="#45283C" />
<rect x="21" y="6" width="1" height="1" fill="#45283C" />
<rect x="22" y="6" width="1" height="1" fill="#45283C" />
<rect x="23" y="6" width="1" height="1" fill="#332337" opacity="0.850980" />
<rect x="24" y="6" width="1" height="1" fill="#312F3F" />
<rect x="6" y="7" width="1" height="1" fill="#312F3F" />
<rect x="7" y="7" width="1" height="1" fill="#45283C" />
<rect x="8" y="7" width="1" height="1" fill="#45283C" />
<rect x="9" y="7" width="1" height="1" fill="#45283C" />
<rect x="10" y="7" width="1" height="1" fill="#45283C" />
<rect x="11" y="7" width="1" height="1" fill="#45283C" />
<rect x="12" y="7" width="1" height="1" fill="#45283C" />
<rect x="13" y="7" width="1" height="1" fill="#45283C" />
<rect x="14" y="7" width="1" height="1" fill="#45283C" />
<rect x="15" y="7" width="1" height="1" fill="#45283C" />
<rect x="16" y="7" width="1" height="1" fill="#45283C" />
<rect x="17" y="7" width="1" height="1" fill="#45283C" />
<rect x="18" y="7" width="1" height="1" fill="#45283C" />
<rect x="19" y="7" width="1" height="1" fill="#45283C" />
<rect x="20" y="7" width="1" height="1" fill="#45283C" />
<rect x="21" y="7" width="1" height="1" fill="#45283C" />
<rect x="22" y="7" width="1" height="1" fill="#40263A" opacity="0.960784" />
<rect x="23" y="7" width="1" height="1" fill="#342337" opacity="0.945098" />
<rect x="24" y="7" width="1" height="1" fill="#222034" />
<rect x="25" y="7" width="1" height="1" fill="#312F3F" />
<rect x="7" y="8" width="1" height="1" fill="#312F3F" />
<rect x="8" y="8" width="1" height="1" fill="#222034" />
<rect x="9" y="8" width="1" height="1" fill="#312F3F" />
<rect x="10" y="8" width="1" height="1" fill="#E0AC7B" />
<rect x="11" y="8" width="1" height="1" fill="#E0AC7B" />
<rect x="12" y="8" width="1" height="1" fill="#E0AC7B" />
<rect x="13" y="8" width="1" height="1" fill="#E0AC7B" />
<rect x="14" y="8" width="1" height="1" fill="#E0AC7B" />
<rect x="15" y="8" width="1" height="1" fill="#45283C" />
<rect x="16" y="8" width="1" height="1" fill="#45283C" />
<rect x="17" y="8" width="1" height="1" fill="#45283C" />
<rect x="18" y="8" width="1" height="1" fill="#45283C" />
<rect x="19" y="8" width="1" height="1" fill="#45283C" />
<rect x="20" y="8" width="1" height="1" fill="#45283C" />
<rect x="21" y="8" width="1" height="1" fill="#44273B" opacity="0.992157" />
<rect x="22" y="8" width="1" height="1" fill="#40263A" opacity="0.984314" />
<rect x="23" y="8" width="1" height="1" fill="#352438" opacity="0.952941" />
<rect x="24" y="8" width="1" height="1" fill="#2B2236" opacity="0.956863" />
<rect x="25" y="8" width="1" height="1" fill="#312F3F" />
<rect x="8" y="9" width="1" height="1" fill="#222034" />
<rect x="9" y="9" width="1" height="1" fill="#E0AC7B" />
<rect x="10" y="9" width="1" height="1" fill="#E0AC7B" />
<rect x="11" y="9" width="1" height="1" fill="#E0AC7B" />
<rect x="12" y="9" width="1" height="1" fill="#E9B380" />
<rect x="13" y="9" width="1" height="1" fill="#E0AC7B" />
<rect x="14" y="9" width="1" height="1" fill="#E0AC7B" />
<rect x="15" y="9" width="1" height="1" fill="#E0AC7B" />
<rect x="16" y="9" width="1" height="1" fill="#45283C" />
<rect x="17" y="9" width="1" height="1" fill="#45283C" />
<rect x="18" y="9" width="1" height="1" fill="#45283C" />
<rect x="19" y="9" width="1" height="1" fill="#45283C" />
<rect x="20" y="9" width="1" height="1" fill="#44273B" opacity="0.996078" />
<rect x="21" y="9" width="1" height="1" fill="#46293C" opacity="0.996078" />
<rect x="22" y="9" width="1" height="1" fill="#42283B" opacity="0.988235" />
<rect x="23" y="9" width="1" height="1" fill="#3A2639" opacity="0.960784" />
<rect x="24" y="9" width="1" height="1" fill="#2E2236" opacity="0.941176" />
<rect x="25" y="9" width="1" height="1" fill="#312F3F" />
<rect x="8" y="10" width="1" height="1" fill="#222034" />
<rect x="9" y="10" width="1" height="1" fill="#E0AC7B" />
<rect x="10" y="10" width="1" height="1" fill="#222034" />
<rect x="11" y="10" width="1" height="1" fill="#E9B380" />
<rect x="12" y="10" width="1" height="1" fill="#E9B380" />
<rect x="13" y="10" width="1" height="1" fill="#E9B380" />
<rect x="14" y="10" width="1" height="1" fill="#E9B380" />
<rect x="15" y="10" width="1" height="1" fill="#E9B380" />
<rect x="16" y="10" width="1" height="1" fill="#E0AC7B" />
<rect x="17" y="10" width="1" height="1" fill="#45283C" />
<rect x="18" y="10" width="1" height="1" fill="#45283C" />
<rect x="19" y="10" width="1" height="1" fill="#45283C" />
<rect x="20" y="10" width="1" height="1" fill="#45283C" />
<rect x="21" y="10" width="1" height="1" fill="#45283C" />
<rect x="22" y="10" width="1" height="1" fill="#45283C" />
<rect x="23" y="10" width="1" height="1" fill="#402A3C" opacity="0.949020" />
<rect x="24" y="10" width="1" height="1" fill="#45283C" />
<rect x="25" y="10" width="1" height="1" fill="#312F3F" />
<rect x="8" y="11" width="1" height="1" fill="#222034" />
<rect x="9" y="11" width="1" height="1" fill="#E0AC7B" />
<rect x="10" y="11" width="1" height="1" fill="#222034" />
<rect x="11" y="11" width="1" height="1" fill="#E9B380" />
<rect x="12" y="11" width="1" height="1" fill="#E9B380" />
<rect x="13" y="11" width="1" height="1" fill="#E9B380" />
<rect x="14" y="11" width="1" height="1" fill="#E9B380" />
<rect x="15" y="11" width="1" height="1" fill="#E9B380" />
<rect x="16" y="11" width="1" height="1" fill="#222034" />
<rect x="17" y="11" width="1" height="1" fill="#E9B380" />
<rect x="18" y="11" width="1" height="1" fill="#45283C" />
<rect x="19" y="11" width="1" height="1" fill="#45283C" />
<rect x="20" y="11" width="1" height="1" fill="#E0AC7B" />
<rect x="21" y="11" width="1" height="1" fill="#E0AC7B" />
<rect x="22" y="11" width="1" height="1" fill="#45283C" />
<rect x="23" y="11" width="1" height="1" fill="#45283C" />
<rect x="24" y="11" width="1" height="1" fill="#45283C" />
<rect x="25" y="11" width="1" height="1" fill="#312F3F" />
<rect x="8" y="12" width="1" height="1" fill="#222034" />
<rect x="9" y="12" width="1" height="1" fill="#E0AC7B" />
<rect x="10" y="12" width="1" height="1" fill="#393743" />
<rect x="11" y="12" width="1" height="1" fill="#E9B380" />
<rect x="12" y="12" width="1" height="1" fill="#E9B380" />
<rect x="13" y="12" width="1" height="1" fill="#E9B380" />
<rect x="14" y="12" width="1" height="1" fill="#E9B380" />
<rect x="15" y="12" width="1" height="1" fill="#E9B380" />
<rect x="16" y="12" width="1" height="1" fill="#222034" />
<rect x="17" y="12" width="1" height="1" fill="#E9B380" />
<rect x="18" y="12" width="1" height="1" fill="#45283C" />
<rect x="19" y="12" width="1" height="1" fill="#45283C" />
<rect x="20" y="12" width="1" height="1" fill="#E0AC7B" />
<rect x="21" y="12" width="1" height="1" fill="#E0AC7B" />
<rect x="22" y="12" width="1" height="1" fill="#45283C" />
<rect x="23" y="12" width="1" height="1" fill="#45283C" />
<rect x="24" y="12" width="1" height="1" fill="#45283C" />
<rect x="8" y="13" width="1" height="1" fill="#222034" />
<rect x="9" y="13" width="1" height="1" fill="#E0AC7B" />
<rect x="10" y="13" width="1" height="1" fill="#E0AC7B" />
<rect x="11" y="13" width="1" height="1" fill="#E9B380" />
<rect x="12" y="13" width="1" height="1" fill="#E9B380" />
<rect x="13" y="13" width="1" height="1" fill="#E9B380" />
<rect x="14" y="13" width="1" height="1" fill="#E9B380" />
<rect x="15" y="13" width="1" height="1" fill="#E9B380" />
<rect x="16" y="13" width="1" height="1" fill="#393743" />
<rect x="17" y="13" width="1" height="1" fill="#E9B380" />
<rect x="18" y="13" width="1" height="1" fill="#45283C" />
<rect x="19" y="13" width="1" height="1" fill="#45283C" />
<rect x="20" y="13" width="1" height="1" fill="#E0AC7B" />
<rect x="21" y="13" width="1" height="1" fill="#E0AC7B" />
<rect x="22" y="13" width="1" height="1" fill="#45283C" />
<rect x="23" y="13" width="1" height="1" fill="#45283C" />
<rect x="8" y="14" width="1" height="1" fill="#222034" />
<rect x="9" y="14" width="1" height="1" fill="#E0AC7B" />
<rect x="10" y="14" width="1" height="1" fill="#E0AC7B" />
<rect x="11" y="14" width="1" height="1" fill="#E0AC7B" />
<rect x="12" y="14" width="1" height="1" fill="#E9B380" />
<rect x="13" y="14" width="1" height="1" fill="#E9B380" />
<rect x="14" y="14" width="1" height="1" fill="#E9B380" />
<rect x="15" y="14" width="1" height="1" fill="#E9B380" />
<rect x="16" y="14" width="1" height="1" fill="#E9B380" />
<rect x="17" y="14" width="1" height="1" fill="#E9B380" />
<rect x="18" y="14" width="1" height="1" fill="#E9B380" />
<rect x="19" y="14" width="1" height="1" fill="#45283C" />
<rect x="20" y="14" width="1" height="1" fill="#E0AC7B" />
<rect x="21" y="14" width="1" height="1" fill="#312F3F" />
<rect x="22" y="14" width="1" height="1" fill="#312F3F" />
<rect x="9" y="15" width="1" height="1" fill="#312F3F" />
<rect x="10" y="15" width="1" height="1" fill="#E0AC7B" />
<rect x="11" y="15" width="1" height="1" fill="#E0AC7B" />
<rect x="12" y="15" width="1" height="1" fill="#E0AC7B" />
<rect x="13" y="15" width="1" height="1" fill="#E9B380" />
<rect x="14" y="15" width="1" height="1" fill="#E9B380" />
<rect x="15" y="15" width="1" height="1" fill="#E9B380" />
<rect x="16" y="15" width="1" height="1" fill="#E9B380" />
<rect x="17" y="15" width="1" height="1" fill="#E0AC7B" />
<rect x="18" y="15" width="1" height="1" fill="#E0AC7B" />
<rect x="19" y="15" width="1" height="1" fill="#E0AC7B" />
<rect x="20" y="15" width="1" height="1" fill="#222034" />
<rect x="21" y="15" width="1" height="1" fill="#312F3F" />
<rect x="10" y="16" width="1" height="1" fill="#222034" />
<rect x="11" y="16" width="1" height="1" fill="#222034" />
<rect x="12" y="16" width="1" height="1" fill="#222034" />
<rect x="13" y="16" width="1" height="1" fill="#E0AC7B" />
<rect x="14" y="16" width="1" height="1" fill="#E0AC7B" />
<rect x="15" y="16" width="1" height="1" fill="#E0AC7B" />
<rect x="16" y="16" width="1" height="1" fill="#E0AC7B" />
<rect x="17" y="16" width="1" height="1" fill="#E0AC7B" />
<rect x="18" y="16" width="1" height="1" fill="#222034" />
<rect x="19" y="16" width="1" height="1" fill="#222034" />
<rect x="20" y="16" width="1" height="1" fill="#222034" />
<rect x="21" y="16" width="1" height="1" fill="#222034" />
<rect x="22" y="16" width="1" height="1" fill="#312F3F" />
<rect x="12" y="17" width="1" height="1" fill="#222034" />
<rect x="13" y="17" width="1" height="1" fill="#222034" />
<rect x="14" y="17" width="1" height="1" fill="#E0AC7B" />
<rect x="15" y="17" width="1" height="1" fill="#E0AC7B" />
<rect x="16" y="17" width="1" height="1" fill="#222034" />
<rect x="17" y="17" width="1" height="1" fill="#222034" />
<rect x="18" y="17" width="1" height="1" fill="#312F3F" />
<rect x="19" y="17" width="1" height="1" fill="#312F3F" />
<rect x="20" y="17" width="1" height="1" fill="#312F3F" />
<rect x="21" y="17" width="1" height="1" fill="#312F3F" />
<rect x="22" y="17" width="1" height="1" fill="#312F3F" />
<rect x="12" y="18" width="1" height="1" fill="#222034" />
<rect x="13" y="18" width="1" height="1" fill="#222034" />
<rect x="14" y="18" width="1" height="1" fill="#E0AC7B" />
<rect x="15" y="18" width="1" height="1" fill="#222034" />
<rect x="16" y="18" width="1" height="1" fill="#222034" />
<rect x="17" y="18" width="1" height="1" fill="#312F3F" />
<rect x="18" y="18" width="1" height="1" fill="#312F3F" />
<rect x="19" y="18" width="1" height="1" fill="#44514D" />
<rect x="20" y="18" width="1" height="1" fill="#44514D" />
<rect x="21" y="18" width="1" height="1" fill="#44514D" />
<rect x="22" y="18" width="1" height="1" fill="#312F3F" />
<rect x="10" y="19" width="1" height="1" fill="#222034" />
<rect x="11" y="19" width="1" height="1" fill="#323C39" />
<rect x="12" y="19" width="1" height="1" fill="#222034" />
<rect x="13" y="19" width="1" height="1" fill="#222034" />
<rect x="14" y="19" width="1" height="1" fill="#222034" />
<rect x="15" y="19" width="1" height="1" fill="#222034" />
<rect x="16" y="19" width="1" height="1" fill="#312F3F" />
<rect x="17" y="19" width="1" height="1" fill="#989209" />
<rect x="18" y="19" width="1" height="1" fill="#44514D" />
<rect x="19" y="19" width="1" height="1" fill="#44514D" />
<rect x="20" y="19" width="1" height="1" fill="#44514D" />
<rect x="21" y="19" width="1" height="1" fill="#44514D" />
<rect x="22" y="19" width="1" height="1" fill="#323C39" />
<rect x="23" y="19" width="1" height="1" fill="#222034" />
<rect x="10" y="20" width="1" height="1" fill="#222034" />
<rect x="11" y="20" width="1" height="1" fill="#323C39" />
<rect x="12" y="20" width="1" height="1" fill="#989209" />
<rect x="13" y="20" width="1" height="1" fill="#222034" />
<rect x="14" y="20" width="1" height="1" fill="#312F3F" />
<rect x="15" y="20" width="1" height="1" fill="#312F3F" />
<rect x="16" y="20" width="1" height="1" fill="#312F3F" />
<rect x="17" y="20" width="1" height="1" fill="#989209" />
<rect x="18" y="20" width="1" height="1" fill="#44514D" />
<rect x="19" y="20" width="1" height="1" fill="#44514D" />
<rect x="20" y="20" width="1" height="1" fill="#44514D" />
<rect x="21" y="20" width="1" height="1" fill="#44514D" />
<rect x="22" y="20" width="1" height="1" fill="#323C39" />
<rect x="23" y="20" width="1" height="1" fill="#222034" />
<rect x="10" y="21" width="1" height="1" fill="#222034" />
<rect x="11" y="21" width="1" height="1" fill="#222034" />
<rect x="12" y="21" width="1" height="1" fill="#989209" />
<rect x="13" y="21" width="1" height="1" fill="#323C39" />
<rect x="14" y="21" width="1" height="1" fill="#312F3F" />
<rect x="15" y="21" width="1" height="1" fill="#44514D" />
<rect x="16" y="21" width="1" height="1" fill="#44514D" />
<rect x="17" y="21" width="1" height="1" fill="#989209" />
<rect x="18" y="21" width="1" height="1" fill="#44514D" />
<rect x="19" y="21" width="1" height="1" fill="#323C39" />
<rect x="20" y="21" width="1" height="1" fill="#323C39" />
<rect x="21" y="21" width="1" height="1" fill="#323C39" />
<rect x="22" y="21" width="1" height="1" fill="#323C39" />
<rect x="23" y="21" width="1" height="1" fill="#323C39" />
<rect x="24" y="21" width="1" height="1" fill="#222034" />
<rect x="9" y="22" width="1" height="1" fill="#312F3F" />
<rect x="10" y="22" width="1" height="1" fill="#323C39" />
<rect x="11" y="22" width="1" height="1" fill="#323C39" />
<rect x="12" y="22" width="1" height="1" fill="#989209" />
<rect x="13" y="22" width="1" height="1" fill="#44514D" />
<rect x="14" y="22" width="1" height="1" fill="#44514D" />
<rect x="15" y="22" width="1" height="1" fill="#44514D" />
<rect x="16" y="22" width="1" height="1" fill="#44514D" />
<rect x="17" y="22" width="1" height="1" fill="#989209" />
<rect x="18" y="22" width="1" height="1" fill="#44514D" />
<rect x="19" y="22" width="1" height="1" fill="#323C39" />
<rect x="20" y="22" width="1" height="1" fill="#323C39" />
<rect x="21" y="22" width="1" height="1" fill="#323C39" />
<rect x="22" y="22" width="1" height="1" fill="#44514D" />
<rect x="23" y="22" width="1" height="1" fill="#44514D" />
<rect x="24" y="22" width="1" height="1" fill="#44514D" />
<rect x="25" y="22" width="1" height="1" fill="#323C39" />
<rect x="8" y="23" width="1" height="1" fill="#312F3F" />
<rect x="9" y="23" width="1" height="1" fill="#44514D" />
<rect x="10" y="23" width="1" height="1" fill="#44514D" />
<rect x="11" y="23" width="1" height="1" fill="#44514D" />
<rect x="12" y="23" width="1" height="1" fill="#44514D" />
<rect x="13" y="23" width="1" height="1" fill="#44514D" />
<rect x="14" y="23" width="1" height="1" fill="#44514D" />
<rect x="15" y="23" width="1" height="1" fill="#44514D" />
<rect x="16" y="23" width="1" height="1" fill="#44514D" />
<rect x="17" y="23" width="1" height="1" fill="#44514D" />
<rect x="18" y="23" width="1" height="1" fill="#44514D" />
<rect x="19" y="23" width="1" height="1" fill="#323C39" />
<rect x="20" y="23" width="1" height="1" fill="#323C39" />
<rect x="21" y="23" width="1" height="1" fill="#323C39" />
<rect x="22" y="23" width="1" height="1" fill="#44514D" />
<rect x="23" y="23" width="1" height="1" fill="#44514D" />
<rect x="24" y="23" width="1" height="1" fill="#44514D" />
<rect x="25" y="23" width="1" height="1" fill="#323C39" />
<rect x="26" y="23" width="1" height="1" fill="#222034" />
<rect x="8" y="24" width="1" height="1" fill="#312F3F" />
<rect x="9" y="24" width="1" height="1" fill="#44514D" />
<rect x="10" y="24" width="1" height="1" fill="#44514D" />
<rect x="11" y="24" width="1" height="1" fill="#44514D" />
<rect x="12" y="24" width="1" height="1" fill="#44514D" />
<rect x="13" y="24" width="1" height="1" fill="#44514D" />
<rect x="14" y="24" width="1" height="1" fill="#44514D" />
<rect x="15" y="24" width="1" height="1" fill="#44514D" />
<rect x="16" y="24" width="1" height="1" fill="#44514D" />
<rect x="17" y="24" width="1" height="1" fill="#44514D" />
<rect x="18" y="24" width="1" height="1" fill="#44514D" />
<rect x="19" y="24" width="1" height="1" fill="#44514D" />
<rect x="20" y="24" width="1" height="1" fill="#44514D" />
<rect x="21" y="24" width="1" height="1" fill="#44514D" />
<rect x="22" y="24" width="1" height="1" fill="#44514D" />
<rect x="23" y="24" width="1" height="1" fill="#44514D" />
<rect x="24" y="24" width="1" height="1" fill="#323C39" />
<rect x="25" y="24" width="1" height="1" fill="#323C39" />
<rect x="26" y="24" width="1" height="1" fill="#222034" />
<rect x="9" y="25" width="1" height="1" fill="#222034" />
<rect x="10" y="25" width="1" height="1" fill="#222034" />
<rect x="11" y="25" width="1" height="1" fill="#222034" />
<rect x="12" y="25" width="1" height="1" fill="#44514D" />
<rect x="13" y="25" width="1" height="1" fill="#44514D" />
<rect x="14" y="25" width="1" height="1" fill="#44514D" />
<rect x="15" y="25" width="1" height="1" fill="#44514D" />
<rect x="16" y="25" width="1" height="1" fill="#44514D" />
<rect x="17" y="25" width="1" height="1" fill="#44514D" />
<rect x="18" y="25" width="1" height="1" fill="#44514D" />
<rect x="19" y="25" width="1" height="1" fill="#44514D" />
<rect x="20" y="25" width="1" height="1" fill="#44514D" />
<rect x="21" y="25" width="1" height="1" fill="#44514D" />
<rect x="22" y="25" width="1" height="1" fill="#323C39" />
<rect x="23" y="25" width="1" height="1" fill="#323C39" />
<rect x="24" y="25" width="1" height="1" fill="#323C39" />
<rect x="25" y="25" width="1" height="1" fill="#222034" />
<rect x="11" y="26" width="1" height="1" fill="#222034" />
<rect x="12" y="26" width="1" height="1" fill="#312F3F" />
<rect x="13" y="26" width="1" height="1" fill="#312F3F" />
<rect x="14" y="26" width="1" height="1" fill="#44514D" />
<rect x="15" y="26" width="1" height="1" fill="#44514D" />
<rect x="16" y="26" width="1" height="1" fill="#44514D" />
<rect x="17" y="26" width="1" height="1" fill="#44514D" />
<rect x="18" y="26" width="1" height="1" fill="#44514D" />
<rect x="19" y="26" width="1" height="1" fill="#44514D" />
<rect x="20" y="26" width="1" height="1" fill="#44514D" />
<rect x="21" y="26" width="1" height="1" fill="#222034" />
<rect x="22" y="26" width="1" height="1" fill="#222034" />
<rect x="23" y="26" width="1" height="1" fill="#222034" />
<rect x="24" y="26" width="1" height="1" fill="#222034" />
<rect x="11" y="27" width="1" height="1" fill="#222034" />
<rect x="12" y="27" width="1" height="1" fill="#222034" />
<rect x="13" y="27" width="1" height="1" fill="#312F3F" />
<rect x="14" y="27" width="1" height="1" fill="#312F3F" />
<rect x="15" y="27" width="1" height="1" fill="#312F3F" />
<rect x="16" y="27" width="1" height="1" fill="#312F3F" />
<rect x="17" y="27" width="1" height="1" fill="#312F3F" />
<rect x="18" y="27" width="1" height="1" fill="#312F3F" />
<rect x="19" y="27" width="1" height="1" fill="#222034" />
<rect x="20" y="27" width="1" height="1" fill="#222034" />
<rect x="12" y="28" width="1" height="1" fill="#222034" />
<rect x="13" y="28" width="1" height="1" fill="#222034" />
<rect x="14" y="28" width="1" height="1" fill="#222034" />
<rect x="15" y="28" width="1" height="1" fill="#222034" />
<rect x="16" y="28" width="1" height="1" fill="#222034" />
<rect x="17" y="28" width="1" height="1" fill="#222034" />
<rect x="18" y="28" width="1" height="1" fill="#222034" />
<rect x="19" y="28" width="1" height="1" fill="#222034" />
<rect x="20" y="28" width="1" height="1" fill="#222034" />
<rect x="13" y="29" width="1" height="1" fill="#222034" />
<rect x="14" y="29" width="1" height="1" fill="#222034" />
<rect x="17" y="29" width="1" height="1" fill="#222034" />
<rect x="18" y="29" width="1" height="1" fill="#222034" />
<rect x="19" y="29" width="1" height="1" fill="#222034" />
<rect x="13" y="30" width="1" height="1" fill="#222034" />
<rect x="14" y="30" width="1" height="1" fill="#222034" />
<rect x="18" y="30" width="1" height="1" fill="#222034" />
<rect x="19" y="30" width="1" height="1" fill="#222034" />
</svg>